<svg width="24" height="25" viewBox="0 0 24 25" fill="none" xmlns="http://www.w3.org/2000/svg">
<g clip-path="url(#clip0_1_417)">
<path fill-rule="evenodd" clip-rule="evenodd" d="M7.5 0.71875H16.5C18.4891 0.719039 20.3965 1.50931 21.803 2.91576C23.2094 4.32223 23.9997 6.22972 24 8.21875V17.2188C23.9997 19.2078 23.2094 21.1153 21.803 22.5218C20.3965 23.9282 18.4891 24.7184 16.5 24.7188H7.5C5.51097 24.7184 3.60348 23.9282 2.19701 22.5218C0.790559 21.1153 0.000289251 19.2078 0 17.2188V8.21875C0.000289251 6.22972 0.790559 4.32223 2.19701 2.91576C3.60348 1.50931 5.51097 0.719039 7.5 0.71875ZM16.5 22.4693C17.8919 22.4679 19.2264 21.9144 20.2107 20.9302C21.1951 19.9461 21.7488 18.6117 21.7505 17.2198V8.21875C21.7488 6.82704 21.1952 5.49283 20.2111 4.50874C19.2271 3.52464 17.8928 2.97103 16.5011 2.9693H7.5C6.10829 2.97103 4.77408 3.52464 3.78999 4.50874C2.80589 5.49283 2.25228 6.82704 2.25055 8.21875V17.2188C2.25199 18.6109 2.80563 19.9455 3.78999 20.9298C4.77434 21.9142 6.109 22.4679 7.50109 22.4693H16.5Z" fill="#111010"/>
<path fill-rule="evenodd" clip-rule="evenodd" d="M6 12.7188C6 11.5321 6.35189 10.372 7.01119 9.38534C7.67047 8.39864 8.60755 7.62961 9.7039 7.17548C10.8003 6.72135 12.0067 6.60253 13.1705 6.83404C14.3344 7.06555 15.4035 7.637 16.2427 8.47612C17.0818 9.31523 17.6532 10.3843 17.8847 11.5482C18.1162 12.7121 17.9974 13.9185 17.5432 15.0149C17.0892 16.1113 16.3201 17.0482 15.3334 17.7076C14.3468 18.3668 13.1867 18.7188 12 18.7188C10.4087 18.7188 8.88257 18.0866 7.75736 16.9614C6.63214 15.8361 6 14.3101 6 12.7188ZM8.25055 12.7188C8.25033 13.4607 8.47013 14.1859 8.88217 14.8028C9.29421 15.4198 9.87995 15.9007 10.5653 16.1847C11.2507 16.4686 12.0049 16.543 12.7325 16.3984C13.4602 16.2537 14.1286 15.8965 14.6531 15.3718C15.1777 14.8473 15.535 14.1789 15.6796 13.4513C15.8243 12.7237 15.7499 11.9694 15.4659 11.2841C15.182 10.5987 14.7011 10.013 14.0841 9.60092C13.4672 9.1889 12.7419 8.96908 12 8.9693C11.0061 8.97075 10.0532 9.36624 9.35032 10.0691C8.64748 10.7719 8.25199 11.7248 8.25055 12.7188Z" fill="#111010"/>
<path d="M18.4497 7.06754C18.6078 7.06754 18.7624 7.02064 18.8939 6.93277C19.0254 6.84491 19.1279 6.72002 19.1884 6.5739C19.249 6.42779 19.2648 6.26701 19.2339 6.11189C19.203 5.95679 19.1269 5.8143 19.0151 5.70247C18.9033 5.59063 18.7608 5.51448 18.6057 5.48363C18.4505 5.45278 18.2897 5.4686 18.1437 5.52913C17.9976 5.58965 17.8727 5.69214 17.7848 5.82364C17.6969 5.95514 17.65 6.10974 17.65 6.2679C17.65 6.47998 17.7342 6.68336 17.8842 6.83333C18.0342 6.98329 18.2376 7.06754 18.4497 7.06754Z" fill="#111010"/>
</g>
<defs>
<clipPath id="clip0_1_417">
<rect width="24" height="24" fill="white" transform="translate(0 0.71875)"/>
</clipPath>
</defs>
</svg>
