<svg width="100" height="129" viewBox="0 0 100 129" fill="none" xmlns="http://www.w3.org/2000/svg">
<mask id="mask0_1_438" style="mask-type:alpha" maskUnits="userSpaceOnUse" x="0" y="0" width="100" height="129">
<path fill-rule="evenodd" clip-rule="evenodd" d="M58.3341 0.609375H41.6675V38.86L20.5365 11.8124L8.75133 26.8972L29.8804 53.9425H-1.52588e-05V75.2757H29.883L8.75311 102.322L20.5381 117.407L41.6675 90.3617V128.609H58.3341V90.3632L79.462 117.407L91.2471 102.322L70.1173 75.2757H100V53.9425H70.12L91.249 26.8972L79.4639 11.8124L58.3341 38.8584V0.609375Z" fill="white"/>
</mask>
<g mask="url(#mask0_1_438)">
<path fill-rule="evenodd" clip-rule="evenodd" d="M58.3341 0.609375H41.6675V38.86L20.5365 11.8124L8.75133 26.8972L29.8804 53.9425H-1.52588e-05V75.2757H29.883L8.75311 102.322L20.5381 117.407L41.6675 90.3617V128.609H58.3341V90.3632L79.462 117.407L91.2471 102.322L70.1173 75.2757H100V53.9425H70.12L91.249 26.8972L79.4639 11.8124L58.3341 38.8584V0.609375Z" fill="#FF9B3D"/>
<path d="M41.6675 0.609315V-2.00293H39.6267V0.609315H41.6675ZM58.3341 0.609315H60.3749V-2.00293H58.3341V0.609315ZM41.6675 38.8599L40.2245 40.707L43.7084 45.1666V38.8599H41.6675ZM20.5365 11.8123L21.9796 9.96517L20.5365 8.11803L19.0934 9.96517L20.5365 11.8123ZM8.75133 26.8971L7.30827 25.0501L5.86519 26.8971L7.30827 28.7445L8.75133 26.8971ZM29.8804 53.9425V56.5547H34.8073L31.3235 52.0954L29.8804 53.9425ZM-1.62125e-05 53.9425V51.3302H-2.04083V53.9425H-1.62125e-05ZM-1.62125e-05 75.2756H-2.04083V77.8879H-1.62125e-05V75.2756ZM29.883 75.2756L31.3261 77.1227L34.81 72.6634H29.883V75.2756ZM8.75311 102.322L7.31002 100.475L5.86696 102.322L7.31002 104.169L8.75311 102.322ZM20.5381 117.407L19.0951 119.254L20.5381 121.101L21.9812 119.254L20.5381 117.407ZM41.6675 90.3616H43.7084V84.0549L40.2245 88.5142L41.6675 90.3616ZM41.6675 128.609H39.6267V131.222H41.6675V128.609ZM58.3341 128.609V131.222H60.3749V128.609H58.3341ZM58.3341 90.3632L59.7771 88.5161L56.2932 84.0567V90.3632H58.3341ZM79.462 117.407L78.019 119.254L79.462 121.101L80.9051 119.254L79.462 117.407ZM91.2471 102.322L92.6902 104.169L94.1332 102.322L92.6902 100.475L91.2471 102.322ZM70.1173 75.2756V72.6634H65.1902L68.6743 77.1227L70.1173 75.2756ZM100 75.2756V77.8879H102.041V75.2756H100ZM100 53.9425H102.041V51.3302H100V53.9425ZM70.12 53.9425L68.6767 52.0954L65.1928 56.5547H70.12V53.9425ZM91.249 26.8971L92.692 28.7445L94.1351 26.8971L92.692 25.0501L91.249 26.8971ZM79.4639 11.8123L80.9069 9.96517L79.4639 8.11803L78.0208 9.96517L79.4639 11.8123ZM58.3341 38.8583H56.2932V45.1648L59.7771 40.7054L58.3341 38.8583ZM41.6675 3.22156H58.3341V-2.00293H41.6675V3.22156ZM43.7084 38.8599V0.609315H39.6267V38.8599H43.7084ZM19.0934 13.6594L40.2245 40.707L43.1106 37.0128L21.9796 9.96517L19.0934 13.6594ZM10.1944 28.7445L21.9796 13.6594L19.0934 9.96517L7.30827 25.0501L10.1944 28.7445ZM31.3235 52.0954L10.1944 25.0501L7.30827 28.7445L28.4373 55.7896L31.3235 52.0954ZM-1.62125e-05 56.5547H29.8804V51.3302H-1.62125e-05V56.5547ZM2.0408 75.2756V53.9425H-2.04083V75.2756H2.0408ZM29.883 72.6634H-1.62125e-05V77.8879H29.883V72.6634ZM10.1962 104.169L31.3261 77.1227L28.44 73.4285L7.31002 100.475L10.1962 104.169ZM21.9812 115.56L10.1962 100.475L7.31002 104.169L19.0951 119.254L21.9812 115.56ZM40.2245 88.5142L19.0951 115.56L21.9812 119.254L43.1106 92.2087L40.2245 88.5142ZM43.7084 128.609V90.3616H39.6267V128.609H43.7084ZM58.3341 125.997H41.6675V131.222H58.3341V125.997ZM56.2932 90.3632V128.609H60.3749V90.3632H56.2932ZM80.9051 115.56L59.7771 88.5161L56.891 92.2103L78.019 119.254L80.9051 115.56ZM89.8041 100.475L78.019 115.56L80.9051 119.254L92.6902 104.169L89.8041 100.475ZM68.6743 77.1227L89.8041 104.169L92.6902 100.475L71.5604 73.4285L68.6743 77.1227ZM100 72.6634H70.1173V77.8879H100V72.6634ZM97.9592 53.9425V75.2756H102.041V53.9425H97.9592ZM70.12 56.5547H100V51.3302H70.12V56.5547ZM89.8059 25.0501L68.6767 52.0954L71.563 55.7896L92.692 28.7445L89.8059 25.0501ZM78.0208 13.6594L89.8059 28.7445L92.692 25.0501L80.9069 9.96517L78.0208 13.6594ZM59.7771 40.7054L80.9069 13.6594L78.0208 9.96517L56.891 37.0112L59.7771 40.7054ZM56.2932 0.609315V38.8583H60.3749V0.609315H56.2932Z" fill="#111010"/>
</g>
</svg>
