<svg width="24" height="25" viewBox="0 0 24 25" fill="none" xmlns="http://www.w3.org/2000/svg">
<g clip-path="url(#clip0_1_414)">
<path d="M24 3.53879C23.0967 4.02015 22.1415 4.33988 21.1636 4.48812C22.1938 3.7418 22.9643 2.5596 23.3291 1.16546C22.3646 1.86467 21.3094 2.35711 20.2091 2.62145C19.5344 1.7419 18.6588 1.13057 17.6962 0.866823C16.7336 0.603079 15.7284 0.699103 14.8109 1.14243C13.8936 1.58576 13.1064 2.35592 12.5517 3.35292C11.9969 4.34993 11.7002 5.52773 11.7 6.73345C11.6945 7.19433 11.7311 7.65451 11.8091 8.10545C9.85223 7.98728 7.9378 7.36577 6.19089 6.28156C4.44397 5.19733 2.90389 3.67481 1.67127 1.81346C1.03795 3.1364 0.841756 4.70495 1.12276 6.19872C1.40378 7.69249 2.1408 8.99879 3.18327 9.85079C2.40435 9.82557 1.64183 9.57177 0.96 9.11079V9.17612C0.961313 10.5649 1.35407 11.9107 2.07215 12.987C2.79023 14.0634 3.78979 14.8045 4.90255 15.0855C4.48148 15.2214 4.04749 15.2882 3.612 15.2842C3.29933 15.291 2.98699 15.2565 2.68036 15.1815C2.99828 16.3749 3.61105 17.4186 4.43432 18.1689C5.25758 18.9191 6.25087 19.339 7.27745 19.3709C5.53588 21.0355 3.38803 21.9387 1.17709 21.9362C0.783662 21.9389 0.390493 21.9109 0 21.8522C2.24991 23.6239 4.87154 24.5613 7.548 24.5509C9.39036 24.5666 11.2169 24.1347 12.9216 23.2805C14.6263 22.4261 16.175 21.1663 17.4779 19.5742C18.7809 17.9821 19.812 16.0895 20.5114 14.0062C21.2108 11.9229 21.5644 9.69056 21.552 7.43879C21.552 7.17212 21.5444 6.91612 21.5335 6.66145C22.5041 5.81247 23.34 4.75427 24 3.53879Z" fill="#111010"/>
</g>
<defs>
<clipPath id="clip0_1_414">
<rect width="24" height="24" fill="white" transform="translate(0 0.71875)"/>
</clipPath>
</defs>
</svg>
